<svg id="Layer_1" data-name="Layer 1" xmlns="http://www.w3.org/2000/svg" viewBox="0 0 500 500"><title>15. Approved</title><path d="M254.55,275.94a33,33,0,0,1,2.39-35.63c8.07,3.86,8.34,15.07,12.66,22.9,5.82,10.55,19.84,15.76,22.8,27.43,1.26,4.95.2,10.16-1,15.11-3.05,12.22-7.47,30.61-18.27,12.15-4-6.86-2.83-14.65-5.44-21.86C264.87,288.32,258.56,282.94,254.55,275.94Z" fill="#3fe2fd"/><polygon points="222.23 347.33 294.72 346.53 285.58 326.21 211.84 333.5 222.23 347.33" fill="#3fe2fd"/><path d="M333.85,225v22.22a64.8,64.8,0,0,1,8.54,6.18A215.08,215.08,0,0,0,333.85,225Z" fill="none"/><path d="M360.64,454.57a7,7,0,0,0,7-7V380a7,7,0,0,0-7-7H341.35c3.15-9.44,9.48-24.06,18-40.07a7,7,0,0,0,.55-1.33,90.25,90.25,0,0,0-.94-51.48c2-34-19.83-80-25.08-90.46V92.87A30.19,30.19,0,0,0,303.7,62.72H198a30.19,30.19,0,0,0-30.16,30.15v52.76a24.71,24.71,0,0,0-18.91,37.92,24.68,24.68,0,0,0-8.22,35,24.7,24.7,0,0,0,3.4,39.5,25.63,25.63,0,0,0-1.85,3.28,24.74,24.74,0,0,0,12.14,32.82l13.44,6.18v3a30.19,30.19,0,0,0,26.45,29.92L223.63,373H207.47a7,7,0,0,0-7,7v67.57a7,7,0,0,0,14,0h0V387H353.64v60.57h0A7,7,0,0,0,360.64,454.57Zm-206-179.19a10.72,10.72,0,0,1,13.18-14V284.9l-7.59-3.49A10.68,10.68,0,0,1,154.63,275.38ZM160,165.8a10.7,10.7,0,0,1,7.79-6v21.29c-.27-.07-.53-.15-.8-.21l-1.72-.79A10.76,10.76,0,0,1,160,165.8Zm-12.67,66.73a10.75,10.75,0,0,1,14.24-5.27l6.22,2.86v17a24.68,24.68,0,0,0-11.61,1.32l-3.58-1.64a10.74,10.74,0,0,1-5.27-14.25Zm4.22-32.1a10.73,10.73,0,0,1,14.24-5.26l2,.91v18.63l-.37-.17a24.62,24.62,0,0,0-13.68-2A10.76,10.76,0,0,1,151.57,200.43Zm30.24,102.91V92.87A16.18,16.18,0,0,1,198,76.72H303.7a16.17,16.17,0,0,1,16.15,16.15V240.24a239,239,0,0,0-23.52-7.93c-15.69-4.65-27.74-2.24-33.92,6.77-5.87,8.57-3.42,19.59,1.61,26.71,4,5.69,9.56,9.69,14.45,13.22l2.1,1.52c1.58,1.16,6.4,4.69,6.51,7.65.05,1.25-.67,3.08-1.43,5l-.33.84a72.42,72.42,0,0,0-5.07,25.46H198A16.18,16.18,0,0,1,181.81,303.34Zm152-78.34a215.08,215.08,0,0,1,8.54,28.4,64.8,64.8,0,0,0-8.54-6.18Zm-60.5,108.5a7,7,0,0,0,5.59-2.8l2.7,2a48.47,48.47,0,0,0,3.71,10.61,7,7,0,1,0,12.56-6.18c-5.08-10.33-4.91-24.2.46-38.06l.31-.78c1.13-2.89,2.54-6.48,2.39-10.64-.31-8.64-6.7-14.4-12.23-18.45l-2.18-1.58c-4.39-3.17-8.54-6.15-11.2-9.93-2.18-3.08-3.45-7.89-1.5-10.72,3.55-5.18,15-2.28,18.39-1.27,14.73,4.36,37,11,46.09,23.91,10.22,14.52,13.54,38,8.17,57.4-1.39,2.64-6.55,12.61-11.46,23.68A161.76,161.76,0,0,0,326.74,373H241l-29.19-39.5Z" fill="#251ac7"/><path d="M214.28,186a7,7,0,0,0-.72,9.88L235,220.69a7,7,0,0,0,5.2,2.43h.09a7,7,0,0,0,5.18-2.29l46.17-50.68a7,7,0,0,0-10.35-9.43l-40.86,44.85-16.24-18.8A7,7,0,0,0,214.28,186Z" fill="#251ac7"/></svg>