<svg xmlns="http://www.w3.org/2000/svg" viewBox="0 0 500 500"><title>6.Chat</title><g id="Layer_4" data-name="Layer 4"><polygon points="191.3 232.26 225.47 242.02 193.18 210.86 139.12 210.86 139.12 232.64 191.3 232.26" fill="#3fe2fd"/><polygon points="267.23 361.12 316.22 347.61 365.21 347.61 366.9 329.03 299.33 329.03 267.23 361.12" fill="#3fe2fd"/><polygon points="138 406.45 138 428.42 162.21 452.07 217.96 452.07 174.03 404.2 138 406.45" fill="#3fe2fd"/></g><g id="Layer_1" data-name="Layer 1"><path d="M269.25,364.91a7,7,0,0,1-4.59,1.71,6.89,6.89,0,0,1-2.9-.63,7,7,0,0,1-4.1-6.37V275.13c0-22.48,14.95-40.76,33.32-40.76h69.68v-151A28,28,0,0,0,332.73,55.4h-26.1a35.77,35.77,0,0,1-35.21,29.76H227.5A35.76,35.76,0,0,1,192.29,55.4H170.58a28,28,0,0,0-27.93,27.93v35.76h60.59c17.85,0,32.38,17.7,32.38,39.45v81.23a7,7,0,0,1-11.58,5.3L190.44,216H142.65V395.53l.38,0H360.66V334.62H304.15Z" fill="none"/><path d="M143,409.51l-.38,0v7.18a28,28,0,0,0,27.93,27.93H332.73a28,28,0,0,0,27.93-27.93v-7.16Z" fill="none"/><path d="M227.5,71.16h43.92A21.76,21.76,0,0,0,292,56.44h-85A21.75,21.75,0,0,0,227.5,71.16Z" fill="none"/><path d="M433.21,234.37H374.66v-151A42,42,0,0,0,332.73,41.4H170.58a42,42,0,0,0-41.93,41.93v35.76H66c-15.73,0-28.53,15.49-28.53,34.52V181.5c0,19,12.8,34.51,28.53,34.51h62.64V416.67a42,42,0,0,0,41.93,41.93H332.73a42,42,0,0,0,41.93-41.93V403.36a7.25,7.25,0,0,0,0-1.7v-67h58.55c16.16,0,29.31-16,29.31-35.62V270C462.52,250.35,449.37,234.37,433.21,234.37ZM448.52,299c0,11.72-7,21.62-15.31,21.62H301.53a7,7,0,0,0-4.59,1.72l-25.28,21.94V275.13c0-14.51,8.85-26.76,19.32-26.76H433.21c8.3,0,15.31,9.9,15.31,21.62ZM292,56.44a21.76,21.76,0,0,1-20.56,14.72H227.5a21.75,21.75,0,0,1-20.56-14.72ZM51.48,181.5V153.61c0-11.12,6.65-20.52,14.53-20.52H203.24c10,0,18.38,11.66,18.38,25.45v65.92l-24-20.74a7,7,0,0,0-4.58-1.71H66C58.13,202,51.48,192.62,51.48,181.5ZM332.73,444.6H170.58a28,28,0,0,1-27.93-27.93v-7.18l.38,0H360.66v7.16A28,28,0,0,1,332.73,444.6Zm27.93-49.09H143l-.38,0V216h47.79L224,245.07a7,7,0,0,0,11.58-5.3V158.54c0-21.75-14.53-39.45-32.38-39.45H142.65V83.33A28,28,0,0,1,170.58,55.4h21.71A35.76,35.76,0,0,0,227.5,85.16h43.92A35.77,35.77,0,0,0,306.63,55.4h26.1a28,28,0,0,1,27.93,27.93v151H291c-18.37,0-33.32,18.28-33.32,40.76v84.49a7,7,0,0,0,4.1,6.37,6.89,6.89,0,0,0,2.9.63,7,7,0,0,0,4.59-1.71l34.9-30.29h56.51Z" fill="#251ac7"/><path d="M135.39,167.69a7,7,0,0,0-7-7H98a7,7,0,0,0,0,14h30.41A7,7,0,0,0,135.39,167.69Z" fill="#251ac7"/><path d="M156.54,174.69h19.15a7,7,0,0,0,0-14H156.54a7,7,0,0,0,0,14Z" fill="#251ac7"/><path d="M353.92,275.57H323.51a7,7,0,0,0,0,14h30.41a7,7,0,0,0,0-14Z" fill="#251ac7"/><path d="M401.22,275.57H382.07a7,7,0,0,0,0,14h19.15a7,7,0,0,0,0-14Z" fill="#251ac7"/></g></svg>