<svg id="Layer_1" data-name="Layer 1" xmlns="http://www.w3.org/2000/svg" viewBox="0 0 500 500"><defs><style>.cls-1{fill:#0099f5;}.cls-2{fill:#69e0a2;}.cls-3{fill:#0f153d;opacity:0.15;}.cls-4{fill:#f0457d;}.cls-5{fill:#db2868;}.cls-6{fill:#24285b;}</style></defs><title>Contact Us</title><circle class="cls-1" cx="250" cy="293.38" r="152.56"/><path class="cls-2" d="M126.53,223.14s-20.36,21-20.36,48.66S108.78,300,114,303.12s16.7,2.08,16.7,11.48,7.83,21.92,16.18,36,27.14,48,36,40.19,12.53-30.79,4.18-45.93-.52-21.93,8.87-37.32,8.35-21.13-3.13-23.22-17.75-39.15-25.57-47-23.49-2.61-27.67-8.35S131.61,216.93,126.53,223.14Z"/><path class="cls-2" d="M198.07,236.47s12.57,13.92,30.07,14.37S243,265.2,250.59,280s8.07,16.61,13,12.57,3.59-17.06,10.77-24.24,17.79-4.49,25.14,5.39,17.06,22.58,21.1,20.72,11.22-12.19,6.73-18.93-12.41-13.91,1.43-15.26,17.42-20.2,8.89-28.73,11.23-21.54-.89-33.21S342.15,170.94,330,166s-48.47-1.79-66-8.53-22.44-1.79-40.4,3.59-25.13-2.69-35-.45-26,10.33-26.93,19.75-13,6.74-19.3,16.16-17,16-15.88,26.62,15,1.75,14.53-2.56-.89-11,6.74-11.94,3.59,3.59,9.42,7.63S177,215.19,177,223.14s-3.31,11.51-9.73,14.22.76,10.33.76,10.33,5.38-3.14,8.07.9,8.53,28.28,18,30.07,28.28-18.4,21.1-20.64S195.82,242.76,198.07,236.47Z"/><path class="cls-2" d="M315.69,368.88s-12.9,22.05-10.86,24.36,21.72-10.54,21.72-4.28-4.61,14.81,9.55,6.58,24.68-17.77,29.29-33.9,5.27-20.08,0-14.81-1.65-5.05-9.22-2.2S339.62,358.38,331.82,361C322.93,363.94,318,364.77,315.69,368.88Z"/><path class="cls-2" d="M299.72,303.05a31.21,31.21,0,0,1,7.47,12.88c2.32,8,5.16,14.94,8.5,14.94s7.22-5.41,3.1-11.08-4.13-7.47-3.35-8.24,1.54-6.95-2.84-12.36-4.89-5.41-4.89-9-1-11.85-1-11.85H303s1.65,17,4,18.29,6.49,13.14,3.21,12.88S300.75,296.35,299.72,303.05Z"/><path class="cls-2" d="M326,312.84s.26,9.79,2.83,12.11,8,3.71,9.71,1.28,8.16-11.16,7.12-13.39-3.13-4.5-1.05-6.93-.73-7.29-2.36-7.12-2.39,5-5.4,7.12S325.84,310.24,326,312.84Z"/><path class="cls-2" d="M317.87,334.22s9,2.61,16,3.82,18.75,1.39,17.36-1-11.81-.35-18.23-2.78S317.17,329.88,317.87,334.22Z"/><path class="cls-2" d="M350.35,318.94s-4.35-.7-5.56,1.39-3.86,7.64-2.54,9.55,3.46-5.56,3.87-3.65,2.14,6.95,3,2.78,0-6.08,1.22-6.94S352.82,319,350.35,318.94Z"/><path class="cls-2" d="M349,315.47s6.42-.82,7.12-2.32S345.31,313.38,349,315.47Z"/><path class="cls-2" d="M362.68,318.83a22.18,22.18,0,0,0,2.6,3.93c1.39,1.56-.87,4,2.09,6.6s-.53,5.73,0,7.64,3.47,4.69,5.21,1.91,3.12-2.61,3.12,0,1.22,5.56,3.13,2.95-2.43-4.69,0-8.16.69-7.12-1.39-10.94-4.17,0-7.12-.87S366.32,313.33,362.68,318.83Z"/><ellipse class="cls-3" cx="250" cy="192.9" rx="21.51" ry="11.81"/><path class="cls-4" d="M250,53a56.1,56.1,0,0,0-40.92,94.48l35.13,42.38a7.52,7.52,0,0,0,11.58,0l35.13-42.38A56.1,56.1,0,0,0,250,53Zm0,59a18.27,18.27,0,1,1,18.26-18.27A18.26,18.26,0,0,1,250,112Z"/><path class="cls-5" d="M261.3,54.47a56.11,56.11,0,0,1,10.61,85.61l-34.66,41.8,6.89,8.3a7.51,7.51,0,0,0,11.57,0l35.13-42.38A56.11,56.11,0,0,0,261.3,54.47Z"/><path class="cls-6" d="M344.5,145.77a4.49,4.49,0,0,1,1.32-3.19,57,57,0,0,0,0-80.61,4.5,4.5,0,0,1,6.36-6.36,66,66,0,0,1,0,93.34,4.5,4.5,0,0,1-7.68-3.18Z"/><path class="cls-6" d="M320,127.93a3.64,3.64,0,0,1,1.31-2.74c7-6,10.8-14,10.8-22.44s-3.83-16.45-10.8-22.44a3.52,3.52,0,0,1,0-5.48,5,5,0,0,1,6.37,0c8.66,7.46,13.43,17.37,13.43,27.92s-4.77,20.46-13.43,27.92a5,5,0,0,1-6.37,0A3.64,3.64,0,0,1,320,127.93Z"/><path class="cls-6" d="M155.5,58.79A4.48,4.48,0,0,1,154.18,62a57,57,0,0,0,0,80.61,4.5,4.5,0,0,1-6.37,6.37,66,66,0,0,1,0-93.34,4.51,4.51,0,0,1,7.69,3.18Z"/><path class="cls-6" d="M180,76.63a3.62,3.62,0,0,1-1.32,2.74c-7,6-10.79,14-10.79,22.44s3.83,16.44,10.79,22.44a3.5,3.5,0,0,1,0,5.48,5,5,0,0,1-6.36,0c-8.66-7.46-13.43-17.38-13.43-27.92s4.77-20.47,13.43-27.92a5,5,0,0,1,6.36,0A3.6,3.6,0,0,1,180,76.63Z"/></svg>